<svg xmlns="http://www.w3.org/2000/svg" version="1.1" xmlns:xlink="http://www.w3.org/1999/xlink" xmlns:svgjs="http://svgjs.dev/svgjs" width="1440" height="560" preserveAspectRatio="none" viewBox="0 0 1440 560">
    <g mask="url(&quot;#SvgjsMask1065&quot;)" fill="none">
        <path d="M1059.332,432.88C1099.663,435.31,1144.39,430.251,1166.359,396.341C1189.799,360.161,1185.847,311.091,1161.104,275.79C1139.218,244.566,1097.459,244.1,1059.332,243.648C1019.995,243.182,973.914,239.825,953.292,273.327C932.132,307.703,950.187,351.045,972.53,384.664C992.165,414.208,1023.922,430.747,1059.332,432.88" fill="rgba(223, 212, 247, 1)" class="triangle-float2"></path>
        <path d="M486.834,261.867C535.727,261.074,586.461,246.706,611.083,204.458C635.845,161.97,626.166,109.037,600.265,67.234C575.822,27.784,533.241,4.36,486.834,3.927C439.621,3.486,395.19,25.353,369.678,65.082C341.835,108.441,329.04,164.331,355.4,208.607C381.319,252.142,436.175,262.689,486.834,261.867" fill="rgba(223, 212, 247, 1)" class="triangle-float2"></path>
        <path d="M346.341,479.083C384.688,476.711,411.067,444.489,429.326,410.685C446.468,378.949,455.704,341.283,437.635,310.065C419.593,278.895,382.349,266.614,346.341,267.314C311.679,267.988,280.184,284.625,260.998,313.501C239.231,346.261,225.421,387.222,243.441,422.183C262.687,459.524,304.412,481.677,346.341,479.083" fill="rgba(223, 212, 247, 1)" class="triangle-float2"></path>
        <path d="M339.034,490.344C359.718,490.163,377.87,479.082,389.51,461.983C403.149,441.948,413.883,417.518,403.526,395.606C391.906,371.023,366.224,355.445,339.034,355.193C311.426,354.937,284.445,369.529,272.434,394.389C261.551,416.915,272.743,442.326,287.007,462.878C298.992,480.145,318.016,490.528,339.034,490.344" fill="rgba(223, 212, 247, 1)" class="triangle-float3"></path>
        <path d="M205.901,277.548C241.234,277.717,281.962,274.229,298.588,243.052C314.718,212.806,291.061,179.952,273.716,150.386C256.693,121.37,239.537,85.621,205.901,85.06C171.767,84.491,151.186,118.529,134.053,148.057C116.826,177.746,98.085,212.158,114.739,242.172C131.689,272.721,170.965,277.381,205.901,277.548" fill="rgba(223, 212, 247, 1)" class="triangle-float1"></path>
        <path d="M1431.775,516.981C1464.462,516.827,1499.936,510.123,1516.227,481.785C1532.481,453.511,1521.764,418.679,1504.013,391.32C1487.985,366.616,1461.193,352.959,1431.775,351.622C1399.425,350.151,1364.939,357.107,1347.187,384.19C1327.913,413.594,1327.041,452.936,1345.93,482.589C1363.68,510.455,1398.736,517.137,1431.775,516.981" fill="rgba(223, 212, 247, 1)" class="triangle-float3"></path>
        <path d="M775.875,455.004C810.655,452.854,844.485,440.291,862.714,410.594C881.793,379.512,882.794,340.811,865.77,308.557C847.513,273.967,814.98,246.871,775.875,246.069C735.53,245.241,700.365,270.28,679.355,304.732C657.329,340.85,645.35,387.023,668.212,422.617C689.919,456.413,735.785,457.482,775.875,455.004" fill="rgba(223, 212, 247, 1)" class="triangle-float2"></path>
        <path d="M801.277,477.379C858.085,478.76,919.161,465.621,948.38,416.883C978.231,367.091,964.83,304.542,934.612,254.972C905.754,207.633,856.719,175.748,801.277,175.573C745.537,175.397,694.327,205.842,666.479,254.127C638.654,302.373,637.273,362.342,666.061,410.02C693.957,456.221,747.323,476.067,801.277,477.379" fill="rgba(223, 212, 247, 1)" class="triangle-float2"></path>
    </g>
    <defs>
        <mask id="SvgjsMask1065">
            <rect width="1440" height="560"></rect>
        </mask>
        <style>
            @keyframes float1 {
                    0%{transform: translate(0, 0)}
                    50%{transform: translate(-10px, 0)}
                    100%{transform: translate(0, 0)}
                }

                .triangle-float1 {
                    animation: float1 5s infinite;
                }

                @keyframes float2 {
                    0%{transform: translate(0, 0)}
                    50%{transform: translate(-5px, -5px)}
                    100%{transform: translate(0, 0)}
                }

                .triangle-float2 {
                    animation: float2 4s infinite;
                }

                @keyframes float3 {
                    0%{transform: translate(0, 0)}
                    50%{transform: translate(0, -10px)}
                    100%{transform: translate(0, 0)}
                }

                .triangle-float3 {
                    animation: float3 6s infinite;
                }
        </style>
    </defs>
</svg>