<svg xmlns="http://www.w3.org/2000/svg" version="1.1" xmlns:xlink="http://www.w3.org/1999/xlink" xmlns:svgjs="http://svgjs.dev/svgjs" width="1440" height="560" preserveAspectRatio="none" viewBox="0 0 1440 560">
    <g mask="url(&quot;#SvgjsMask1005&quot;)" fill="none">
        <rect width="1440" height="560" x="0" y="0" fill="rgba(255, 255, 255, 1)"></rect>
        <path d="M48.66 -2.06L113.61 35.44L113.61 110.44L48.66 147.94L-16.29 110.44L-16.29 35.44zM113.61 110.44L178.57 147.94L178.57 222.94L113.61 260.44L48.66 222.94L48.66 147.94zM48.66 447.94L113.61 485.44L113.61 560.44L48.66 597.94L-16.29 560.44L-16.29 485.44zM243.52 335.44L308.48 372.94L308.48 447.94L243.52 485.44L178.57 447.94L178.57 372.94zM243.52 560.44L308.48 597.94L308.48 672.94L243.52 710.44L178.57 672.94L178.57 597.94zM308.48 -2.06L373.43 35.44L373.43 110.44L308.48 147.94L243.52 110.44L243.52 35.44zM373.43 110.44L438.38 147.94L438.38 222.94L373.43 260.44L308.48 222.94L308.48 147.94zM308.48 222.94L373.43 260.44L373.43 335.44L308.48 372.94L243.52 335.44L243.52 260.44zM373.43 335.44L438.38 372.94L438.38 447.94L373.43 485.44L308.48 447.94L308.48 372.94zM308.48 447.94L373.43 485.44L373.43 560.44L308.48 597.94L243.52 560.44L243.52 485.44zM503.34 560.44L568.29 597.94L568.29 672.94L503.34 710.44L438.38 672.94L438.38 597.94zM633.24 110.44L698.2 147.94L698.2 222.94L633.24 260.44L568.29 222.94L568.29 147.94zM568.29 222.94L633.24 260.44L633.24 335.44L568.29 372.94L503.34 335.44L503.34 260.44zM568.29 447.94L633.24 485.44L633.24 560.44L568.29 597.94L503.34 560.44L503.34 485.44zM633.24 560.44L698.2 597.94L698.2 672.94L633.24 710.44L568.29 672.94L568.29 597.94zM698.2 222.94L763.15 260.44L763.15 335.44L698.2 372.94L633.24 335.44L633.24 260.44zM893.06 560.44L958.01 597.94L958.01 672.94L893.06 710.44L828.1 672.94L828.1 597.94zM958.01 -2.06L1022.97 35.44L1022.97 110.44L958.01 147.94L893.06 110.44L893.06 35.44zM1087.92 -2.06L1152.87 35.44L1152.87 110.44L1087.92 147.94L1022.97 110.44L1022.97 35.44zM1217.83 -2.06L1282.78 35.44L1282.78 110.44L1217.83 147.94L1152.87 110.44L1152.87 35.44zM1217.83 222.94L1282.78 260.44L1282.78 335.44L1217.83 372.94L1152.87 335.44L1152.87 260.44zM1282.78 335.44L1347.73 372.94L1347.73 447.94L1282.78 485.44L1217.83 447.94L1217.83 372.94zM1282.78 560.44L1347.73 597.94L1347.73 672.94L1282.78 710.44L1217.83 672.94L1217.83 597.94zM1347.74 -2.06L1412.69 35.44L1412.69 110.44L1347.74 147.94L1282.78 110.44L1282.78 35.44zM1412.69 110.44L1477.64 147.94L1477.64 222.94L1412.69 260.44L1347.74 222.94L1347.74 147.94zM1412.69 335.44L1477.64 372.94L1477.64 447.94L1412.69 485.44L1347.74 447.94L1347.74 372.94zM1347.74 447.94L1412.69 485.44L1412.69 560.44L1347.74 597.94L1282.78 560.44L1282.78 485.44zM1412.69 560.44L1477.64 597.94L1477.64 672.94L1412.69 710.44L1347.74 672.94L1347.74 597.94zM1542.6 110.44L1607.55 147.94L1607.55 222.94L1542.6 260.44L1477.64 222.94L1477.64 147.94zM1542.6 560.44L1607.55 597.94L1607.55 672.94L1542.6 710.44L1477.64 672.94L1477.64 597.94z" stroke="rgba(0, 0, 0, 0)" stroke-width="2"></path>
        <path d="M41.16 -2.06 a7.5 7.5 0 1 0 15 0 a7.5 7.5 0 1 0 -15 0zM106.11 35.44 a7.5 7.5 0 1 0 15 0 a7.5 7.5 0 1 0 -15 0zM106.11 110.44 a7.5 7.5 0 1 0 15 0 a7.5 7.5 0 1 0 -15 0zM41.16 147.94 a7.5 7.5 0 1 0 15 0 a7.5 7.5 0 1 0 -15 0zM-23.79 110.44 a7.5 7.5 0 1 0 15 0 a7.5 7.5 0 1 0 -15 0zM-23.79 35.44 a7.5 7.5 0 1 0 15 0 a7.5 7.5 0 1 0 -15 0zM171.07 147.94 a7.5 7.5 0 1 0 15 0 a7.5 7.5 0 1 0 -15 0zM171.07 222.94 a7.5 7.5 0 1 0 15 0 a7.5 7.5 0 1 0 -15 0zM106.11 260.44 a7.5 7.5 0 1 0 15 0 a7.5 7.5 0 1 0 -15 0zM41.16 222.94 a7.5 7.5 0 1 0 15 0 a7.5 7.5 0 1 0 -15 0zM41.16 447.94 a7.5 7.5 0 1 0 15 0 a7.5 7.5 0 1 0 -15 0zM106.11 485.44 a7.5 7.5 0 1 0 15 0 a7.5 7.5 0 1 0 -15 0zM106.11 560.44 a7.5 7.5 0 1 0 15 0 a7.5 7.5 0 1 0 -15 0zM41.16 597.94 a7.5 7.5 0 1 0 15 0 a7.5 7.5 0 1 0 -15 0zM-23.79 560.44 a7.5 7.5 0 1 0 15 0 a7.5 7.5 0 1 0 -15 0zM-23.79 485.44 a7.5 7.5 0 1 0 15 0 a7.5 7.5 0 1 0 -15 0zM236.02 335.44 a7.5 7.5 0 1 0 15 0 a7.5 7.5 0 1 0 -15 0zM300.98 372.94 a7.5 7.5 0 1 0 15 0 a7.5 7.5 0 1 0 -15 0zM300.98 447.94 a7.5 7.5 0 1 0 15 0 a7.5 7.5 0 1 0 -15 0zM236.02 485.44 a7.5 7.5 0 1 0 15 0 a7.5 7.5 0 1 0 -15 0zM171.07 447.94 a7.5 7.5 0 1 0 15 0 a7.5 7.5 0 1 0 -15 0zM171.07 372.94 a7.5 7.5 0 1 0 15 0 a7.5 7.5 0 1 0 -15 0zM236.02 560.44 a7.5 7.5 0 1 0 15 0 a7.5 7.5 0 1 0 -15 0zM300.98 597.94 a7.5 7.5 0 1 0 15 0 a7.5 7.5 0 1 0 -15 0zM300.98 672.94 a7.5 7.5 0 1 0 15 0 a7.5 7.5 0 1 0 -15 0zM236.02 710.44 a7.5 7.5 0 1 0 15 0 a7.5 7.5 0 1 0 -15 0zM171.07 672.94 a7.5 7.5 0 1 0 15 0 a7.5 7.5 0 1 0 -15 0zM171.07 597.94 a7.5 7.5 0 1 0 15 0 a7.5 7.5 0 1 0 -15 0zM300.98 -2.06 a7.5 7.5 0 1 0 15 0 a7.5 7.5 0 1 0 -15 0zM365.93 35.44 a7.5 7.5 0 1 0 15 0 a7.5 7.5 0 1 0 -15 0zM365.93 110.44 a7.5 7.5 0 1 0 15 0 a7.5 7.5 0 1 0 -15 0zM300.98 147.94 a7.5 7.5 0 1 0 15 0 a7.5 7.5 0 1 0 -15 0zM236.02 110.44 a7.5 7.5 0 1 0 15 0 a7.5 7.5 0 1 0 -15 0zM236.02 35.44 a7.5 7.5 0 1 0 15 0 a7.5 7.5 0 1 0 -15 0zM430.88 147.94 a7.5 7.5 0 1 0 15 0 a7.5 7.5 0 1 0 -15 0zM430.88 222.94 a7.5 7.5 0 1 0 15 0 a7.5 7.5 0 1 0 -15 0zM365.93 260.44 a7.5 7.5 0 1 0 15 0 a7.5 7.5 0 1 0 -15 0zM300.98 222.94 a7.5 7.5 0 1 0 15 0 a7.5 7.5 0 1 0 -15 0zM365.93 335.44 a7.5 7.5 0 1 0 15 0 a7.5 7.5 0 1 0 -15 0zM236.02 260.44 a7.5 7.5 0 1 0 15 0 a7.5 7.5 0 1 0 -15 0zM430.88 372.94 a7.5 7.5 0 1 0 15 0 a7.5 7.5 0 1 0 -15 0zM430.88 447.94 a7.5 7.5 0 1 0 15 0 a7.5 7.5 0 1 0 -15 0zM365.93 485.44 a7.5 7.5 0 1 0 15 0 a7.5 7.5 0 1 0 -15 0zM365.93 560.44 a7.5 7.5 0 1 0 15 0 a7.5 7.5 0 1 0 -15 0zM495.84 560.44 a7.5 7.5 0 1 0 15 0 a7.5 7.5 0 1 0 -15 0zM560.79 597.94 a7.5 7.5 0 1 0 15 0 a7.5 7.5 0 1 0 -15 0zM560.79 672.94 a7.5 7.5 0 1 0 15 0 a7.5 7.5 0 1 0 -15 0zM495.84 710.44 a7.5 7.5 0 1 0 15 0 a7.5 7.5 0 1 0 -15 0zM430.88 672.94 a7.5 7.5 0 1 0 15 0 a7.5 7.5 0 1 0 -15 0zM430.88 597.94 a7.5 7.5 0 1 0 15 0 a7.5 7.5 0 1 0 -15 0zM625.74 110.44 a7.5 7.5 0 1 0 15 0 a7.5 7.5 0 1 0 -15 0zM690.7 147.94 a7.5 7.5 0 1 0 15 0 a7.5 7.5 0 1 0 -15 0zM690.7 222.94 a7.5 7.5 0 1 0 15 0 a7.5 7.5 0 1 0 -15 0zM625.74 260.44 a7.5 7.5 0 1 0 15 0 a7.5 7.5 0 1 0 -15 0zM560.79 222.94 a7.5 7.5 0 1 0 15 0 a7.5 7.5 0 1 0 -15 0zM560.79 147.94 a7.5 7.5 0 1 0 15 0 a7.5 7.5 0 1 0 -15 0zM625.74 335.44 a7.5 7.5 0 1 0 15 0 a7.5 7.5 0 1 0 -15 0zM560.79 372.94 a7.5 7.5 0 1 0 15 0 a7.5 7.5 0 1 0 -15 0zM495.84 335.44 a7.5 7.5 0 1 0 15 0 a7.5 7.5 0 1 0 -15 0zM495.84 260.44 a7.5 7.5 0 1 0 15 0 a7.5 7.5 0 1 0 -15 0zM560.79 447.94 a7.5 7.5 0 1 0 15 0 a7.5 7.5 0 1 0 -15 0zM625.74 485.44 a7.5 7.5 0 1 0 15 0 a7.5 7.5 0 1 0 -15 0zM625.74 560.44 a7.5 7.5 0 1 0 15 0 a7.5 7.5 0 1 0 -15 0zM495.84 485.44 a7.5 7.5 0 1 0 15 0 a7.5 7.5 0 1 0 -15 0zM690.7 597.94 a7.5 7.5 0 1 0 15 0 a7.5 7.5 0 1 0 -15 0zM690.7 672.94 a7.5 7.5 0 1 0 15 0 a7.5 7.5 0 1 0 -15 0zM625.74 710.44 a7.5 7.5 0 1 0 15 0 a7.5 7.5 0 1 0 -15 0zM755.65 260.44 a7.5 7.5 0 1 0 15 0 a7.5 7.5 0 1 0 -15 0zM755.65 335.44 a7.5 7.5 0 1 0 15 0 a7.5 7.5 0 1 0 -15 0zM690.7 372.94 a7.5 7.5 0 1 0 15 0 a7.5 7.5 0 1 0 -15 0zM885.56 560.44 a7.5 7.5 0 1 0 15 0 a7.5 7.5 0 1 0 -15 0zM950.51 597.94 a7.5 7.5 0 1 0 15 0 a7.5 7.5 0 1 0 -15 0zM950.51 672.94 a7.5 7.5 0 1 0 15 0 a7.5 7.5 0 1 0 -15 0zM885.56 710.44 a7.5 7.5 0 1 0 15 0 a7.5 7.5 0 1 0 -15 0zM820.6 672.94 a7.5 7.5 0 1 0 15 0 a7.5 7.5 0 1 0 -15 0zM820.6 597.94 a7.5 7.5 0 1 0 15 0 a7.5 7.5 0 1 0 -15 0zM950.51 -2.06 a7.5 7.5 0 1 0 15 0 a7.5 7.5 0 1 0 -15 0zM1015.47 35.44 a7.5 7.5 0 1 0 15 0 a7.5 7.5 0 1 0 -15 0zM1015.47 110.44 a7.5 7.5 0 1 0 15 0 a7.5 7.5 0 1 0 -15 0zM950.51 147.94 a7.5 7.5 0 1 0 15 0 a7.5 7.5 0 1 0 -15 0zM885.56 110.44 a7.5 7.5 0 1 0 15 0 a7.5 7.5 0 1 0 -15 0zM885.56 35.44 a7.5 7.5 0 1 0 15 0 a7.5 7.5 0 1 0 -15 0zM1080.42 -2.06 a7.5 7.5 0 1 0 15 0 a7.5 7.5 0 1 0 -15 0zM1145.37 35.44 a7.5 7.5 0 1 0 15 0 a7.5 7.5 0 1 0 -15 0zM1145.37 110.44 a7.5 7.5 0 1 0 15 0 a7.5 7.5 0 1 0 -15 0zM1080.42 147.94 a7.5 7.5 0 1 0 15 0 a7.5 7.5 0 1 0 -15 0zM1210.33 -2.06 a7.5 7.5 0 1 0 15 0 a7.5 7.5 0 1 0 -15 0zM1275.28 35.44 a7.5 7.5 0 1 0 15 0 a7.5 7.5 0 1 0 -15 0zM1275.28 110.44 a7.5 7.5 0 1 0 15 0 a7.5 7.5 0 1 0 -15 0zM1210.33 147.94 a7.5 7.5 0 1 0 15 0 a7.5 7.5 0 1 0 -15 0zM1210.33 222.94 a7.5 7.5 0 1 0 15 0 a7.5 7.5 0 1 0 -15 0zM1275.28 260.44 a7.5 7.5 0 1 0 15 0 a7.5 7.5 0 1 0 -15 0zM1275.28 335.44 a7.5 7.5 0 1 0 15 0 a7.5 7.5 0 1 0 -15 0zM1210.33 372.94 a7.5 7.5 0 1 0 15 0 a7.5 7.5 0 1 0 -15 0zM1145.37 335.44 a7.5 7.5 0 1 0 15 0 a7.5 7.5 0 1 0 -15 0zM1145.37 260.44 a7.5 7.5 0 1 0 15 0 a7.5 7.5 0 1 0 -15 0zM1340.23 372.94 a7.5 7.5 0 1 0 15 0 a7.5 7.5 0 1 0 -15 0zM1340.23 447.94 a7.5 7.5 0 1 0 15 0 a7.5 7.5 0 1 0 -15 0zM1275.28 485.44 a7.5 7.5 0 1 0 15 0 a7.5 7.5 0 1 0 -15 0zM1210.33 447.94 a7.5 7.5 0 1 0 15 0 a7.5 7.5 0 1 0 -15 0zM1275.28 560.44 a7.5 7.5 0 1 0 15 0 a7.5 7.5 0 1 0 -15 0zM1340.23 597.94 a7.5 7.5 0 1 0 15 0 a7.5 7.5 0 1 0 -15 0zM1340.23 672.94 a7.5 7.5 0 1 0 15 0 a7.5 7.5 0 1 0 -15 0zM1275.28 710.44 a7.5 7.5 0 1 0 15 0 a7.5 7.5 0 1 0 -15 0zM1210.33 672.94 a7.5 7.5 0 1 0 15 0 a7.5 7.5 0 1 0 -15 0zM1210.33 597.94 a7.5 7.5 0 1 0 15 0 a7.5 7.5 0 1 0 -15 0zM1340.24 -2.06 a7.5 7.5 0 1 0 15 0 a7.5 7.5 0 1 0 -15 0zM1405.19 35.44 a7.5 7.5 0 1 0 15 0 a7.5 7.5 0 1 0 -15 0zM1405.19 110.44 a7.5 7.5 0 1 0 15 0 a7.5 7.5 0 1 0 -15 0zM1340.24 147.94 a7.5 7.5 0 1 0 15 0 a7.5 7.5 0 1 0 -15 0zM1470.14 147.94 a7.5 7.5 0 1 0 15 0 a7.5 7.5 0 1 0 -15 0zM1470.14 222.94 a7.5 7.5 0 1 0 15 0 a7.5 7.5 0 1 0 -15 0zM1405.19 260.44 a7.5 7.5 0 1 0 15 0 a7.5 7.5 0 1 0 -15 0zM1340.24 222.94 a7.5 7.5 0 1 0 15 0 a7.5 7.5 0 1 0 -15 0zM1405.19 335.44 a7.5 7.5 0 1 0 15 0 a7.5 7.5 0 1 0 -15 0zM1470.14 372.94 a7.5 7.5 0 1 0 15 0 a7.5 7.5 0 1 0 -15 0zM1470.14 447.94 a7.5 7.5 0 1 0 15 0 a7.5 7.5 0 1 0 -15 0zM1405.19 485.44 a7.5 7.5 0 1 0 15 0 a7.5 7.5 0 1 0 -15 0zM1340.24 447.94 a7.5 7.5 0 1 0 15 0 a7.5 7.5 0 1 0 -15 0zM1340.24 372.94 a7.5 7.5 0 1 0 15 0 a7.5 7.5 0 1 0 -15 0zM1405.19 560.44 a7.5 7.5 0 1 0 15 0 a7.5 7.5 0 1 0 -15 0zM1340.24 597.94 a7.5 7.5 0 1 0 15 0 a7.5 7.5 0 1 0 -15 0zM1470.14 597.94 a7.5 7.5 0 1 0 15 0 a7.5 7.5 0 1 0 -15 0zM1470.14 672.94 a7.5 7.5 0 1 0 15 0 a7.5 7.5 0 1 0 -15 0zM1405.19 710.44 a7.5 7.5 0 1 0 15 0 a7.5 7.5 0 1 0 -15 0zM1340.24 672.94 a7.5 7.5 0 1 0 15 0 a7.5 7.5 0 1 0 -15 0zM1535.1 110.44 a7.5 7.5 0 1 0 15 0 a7.5 7.5 0 1 0 -15 0zM1600.05 147.94 a7.5 7.5 0 1 0 15 0 a7.5 7.5 0 1 0 -15 0zM1600.05 222.94 a7.5 7.5 0 1 0 15 0 a7.5 7.5 0 1 0 -15 0zM1535.1 260.44 a7.5 7.5 0 1 0 15 0 a7.5 7.5 0 1 0 -15 0zM1535.1 560.44 a7.5 7.5 0 1 0 15 0 a7.5 7.5 0 1 0 -15 0zM1600.05 597.94 a7.5 7.5 0 1 0 15 0 a7.5 7.5 0 1 0 -15 0zM1600.05 672.94 a7.5 7.5 0 1 0 15 0 a7.5 7.5 0 1 0 -15 0zM1535.1 710.44 a7.5 7.5 0 1 0 15 0 a7.5 7.5 0 1 0 -15 0z" fill="rgba(0, 0, 0, 0)"></path>
        <path d="M11.17 -32.49L54.47 -7.49L54.47 42.51L11.17 67.51L-32.13 42.51L-32.13 -7.49zM54.47 342.51L97.78 367.51L97.78 417.51L54.47 442.51L11.17 417.51L11.17 367.51zM11.17 417.51L54.47 442.51L54.47 492.51L11.17 517.51L-32.13 492.51L-32.13 442.51zM97.78 417.51L141.08 442.51L141.08 492.51L97.78 517.51L54.47 492.51L54.47 442.51zM184.38 117.51L227.68 142.51L227.68 192.51L184.38 217.51L141.08 192.51L141.08 142.51zM227.68 342.51L270.99 367.51L270.99 417.51L227.68 442.51L184.38 417.51L184.38 367.51zM184.38 417.51L227.68 442.51L227.68 492.51L184.38 517.51L141.08 492.51L141.08 442.51zM227.68 492.51L270.99 517.51L270.99 567.51L227.68 592.51L184.38 567.51L184.38 517.51zM400.89 42.51L444.2 67.51L444.2 117.51L400.89 142.51L357.59 117.51L357.59 67.51zM357.59 417.51L400.89 442.51L400.89 492.51L357.59 517.51L314.29 492.51L314.29 442.51zM487.5 42.51L530.8 67.51L530.8 117.51L487.5 142.51L444.2 117.51L444.2 67.51zM444.2 417.51L487.5 442.51L487.5 492.51L444.2 517.51L400.89 492.51L400.89 442.51zM487.5 492.51L530.8 517.51L530.8 567.51L487.5 592.51L444.2 567.51L444.2 517.51zM660.71 42.51L704.01 67.51L704.01 117.51L660.71 142.51L617.4 117.51L617.4 67.51zM660.71 342.51L704.01 367.51L704.01 417.51L660.71 442.51L617.4 417.51L617.4 367.51zM660.71 492.51L704.01 517.51L704.01 567.51L660.71 592.51L617.4 567.51L617.4 517.51zM704.01 117.51L747.31 142.51L747.31 192.51L704.01 217.51L660.71 192.51L660.71 142.51zM747.31 192.51L790.62 217.51L790.62 267.51L747.31 292.51L704.01 267.51L704.01 217.51zM833.92 42.51L877.22 67.51L877.22 117.51L833.92 142.51L790.62 117.51L790.62 67.51zM790.62 117.51L833.92 142.51L833.92 192.51L790.62 217.51L747.31 192.51L747.31 142.51zM790.62 267.51L833.92 292.51L833.92 342.51L790.62 367.51L747.31 342.51L747.31 292.51zM790.62 417.51L833.92 442.51L833.92 492.51L790.62 517.51L747.31 492.51L747.31 442.51zM833.92 492.51L877.22 517.51L877.22 567.51L833.92 592.51L790.62 567.51L790.62 517.51zM877.22 117.51L920.52 142.51L920.52 192.51L877.22 217.51L833.92 192.51L833.92 142.51zM877.22 267.51L920.52 292.51L920.52 342.51L877.22 367.51L833.92 342.51L833.92 292.51zM877.22 417.51L920.52 442.51L920.52 492.51L877.22 517.51L833.92 492.51L833.92 442.51zM1093.73 192.51L1137.04 217.51L1137.04 267.51L1093.73 292.51L1050.43 267.51L1050.43 217.51zM1093.73 342.51L1137.04 367.51L1137.04 417.51L1093.73 442.51L1050.43 417.51L1050.43 367.51zM1180.34 42.51L1223.64 67.51L1223.64 117.51L1180.34 142.51L1137.04 117.51L1137.04 67.51zM1137.04 117.51L1180.34 142.51L1180.34 192.51L1137.04 217.51L1093.73 192.51L1093.73 142.51zM1180.34 192.51L1223.64 217.51L1223.64 267.51L1180.34 292.51L1137.04 267.51L1137.04 217.51zM1137.04 267.51L1180.34 292.51L1180.34 342.51L1137.04 367.51L1093.73 342.51L1093.73 292.51zM1266.94 192.51L1310.25 217.51L1310.25 267.51L1266.94 292.51L1223.64 267.51L1223.64 217.51zM1266.94 492.51L1310.25 517.51L1310.25 567.51L1266.94 592.51L1223.64 567.51L1223.64 517.51zM1353.55 492.51L1396.85 517.51L1396.85 567.51L1353.55 592.51L1310.25 567.51L1310.25 517.51zM1440.15 42.51L1483.46 67.51L1483.46 117.51L1440.15 142.51L1396.85 117.51L1396.85 67.51z" stroke="rgba(103, 93, 216, 1)" stroke-width="2"></path>
    </g>
    <defs>
        <mask id="SvgjsMask1005">
            <rect width="1440" height="560" fill="#ffffff"></rect>
        </mask>
    </defs>
</svg>