<svg viewBox="0 0 200 200" xmlns="http://www.w3.org/2000/svg">
  <path fill="#DFD4F7" d="M35.4,-60.8C49.5,-53.1,67.1,-51,73,-41.8C78.8,-32.6,72.8,-16.3,71.5,-0.7C70.3,14.9,73.8,29.8,67.8,38.6C61.8,47.4,46.2,50.2,33.3,53.1C20.4,56,10.2,59,-1,60.8C-12.2,62.5,-24.4,62.9,-34.8,58.6C-45.2,54.3,-53.9,45.2,-61.1,34.6C-68.4,24.1,-74.2,12,-74.6,-0.2C-75,-12.5,-69.9,-25,-62.9,-35.9C-55.8,-46.8,-46.8,-56.1,-36,-65.7C-25.2,-75.4,-12.6,-85.4,-1,-83.7C10.6,-82,21.2,-68.6,35.4,-60.8Z" transform="translate(100 100)" />
</svg>