<?xml version="1.0" encoding="UTF-8" standalone="no" ?>
<!DOCTYPE svg PUBLIC "-//W3C//DTD SVG 1.1//EN" "http://www.w3.org/Graphics/SVG/1.1/DTD/svg11.dtd">
<svg xmlns="http://www.w3.org/2000/svg" xmlns:xlink="http://www.w3.org/1999/xlink" version="1.1" width="1080" height="1080" viewBox="0 0 1080 1080" xml:space="preserve">
<desc>Created with Fabric.js 5.2.4</desc>
<defs>
</defs>
<g transform="matrix(1 0 0 1 540 540)" id="9b457c51-78ad-4af6-bd1b-4c0ca62bd4ad"  >
<rect style="stroke: none; stroke-width: 1; stroke-dasharray: none; stroke-linecap: butt; stroke-dashoffset: 0; stroke-linejoin: miter; stroke-miterlimit: 4; fill: rgb(255,255,255); fill-rule: nonzero; opacity: 1; visibility: hidden;" vector-effect="non-scaling-stroke"  x="-540" y="-540" rx="0" ry="0" width="1080" height="1080" />
</g>
<g transform="matrix(1 0 0 1 540 540)" id="0dd573c9-6368-4480-9b3e-a2161d960ea7"  >
</g>
<g transform="matrix(4.42 0 0 4.42 540 540)"  >
<g style="" vector-effect="non-scaling-stroke"   >
		<g transform="matrix(1.9 -0.26 0.26 1.9 -56.98 -32.29)" clip-path="url(#CLIPPATH_3)"  >
<clipPath id="CLIPPATH_3" >
	<path transform="matrix(0.52 0.07 -0.07 0.52 370.2 511.64) translate(-1000, -1000)" id="__lottie_element_4" clip-path="url(#undefined)" d="M 0 0 L 2000 0 L 2000 2000 L 0 2000 z" stroke-linecap="round" />
</clipPath>
<path style="stroke: none; stroke-width: 1; stroke-dasharray: none; stroke-linecap: butt; stroke-dashoffset: 0; stroke-linejoin: miter; stroke-miterlimit: 4; fill: rgb(218,204,245); fill-rule: nonzero; opacity: 1;" vector-effect="non-scaling-stroke"  transform=" translate(-0.95, 0)" d="M -8.12600040435791 -7.757999897003174 C -10.833999633789062 0.6769999861717224 -5.835999965667725 17.33799934387207 -5.835999965667725 17.33799934387207 C -5.835999965667725 17.33799934387207 10.833999633789062 -11.003999710083008 10.833999633789062 -11.003999710083008 C 10.833999633789062 -11.003999710083008 4.579999923706055 -16.400999069213867 -3.075000047683716 -17.33799934387207 C -3.075000047683716 -17.33799934387207 -5.419000148773193 -16.19300079345703 -8.12600040435791 -7.757999897003174 z" stroke-linecap="round" />
</g>
		<g transform="matrix(1.9 -0.26 0.26 1.9 -63.37 -44.1)" clip-path="url(#CLIPPATH_4)"  >
<clipPath id="CLIPPATH_4" >
	<path transform="matrix(0.52 0.07 -0.07 0.52 372.68 518.19) translate(-1000, -1000)" id="__lottie_element_4" clip-path="url(#undefined)" d="M 0 0 L 2000 0 L 2000 2000 L 0 2000 z" stroke-linecap="round" />
</clipPath>
<path style="stroke: none; stroke-width: 1; stroke-dasharray: none; stroke-linecap: butt; stroke-dashoffset: 0; stroke-linejoin: miter; stroke-miterlimit: 4; fill: rgb(161,140,239); fill-rule: nonzero; opacity: 1;" vector-effect="non-scaling-stroke"  transform=" translate(0.12, 0)" d="M -4.632999897003174 -6.583000183105469 C -4.632999897003174 -6.583000183105469 2.568000078201294 10.788000106811523 2.568000078201294 10.788000106811523 C 2.568000078201294 10.788000106811523 4.385000228881836 8.909000396728516 4.385000228881836 8.909000396728516 C 4.632999897003174 -4.97599983215332 -1.6649999618530273 -10.788000106811523 -1.6649999618530273 -10.788000106811523 C -3.4059998989105225 -9.434000015258789 -4.632999897003174 -6.583000183105469 -4.632999897003174 -6.583000183105469 z" stroke-linecap="round" />
</g>
		<g transform="matrix(1.9 -0.26 0.26 1.9 78.9 -50.62)" clip-path="url(#CLIPPATH_5)"  >
<clipPath id="CLIPPATH_5" >
	<path transform="matrix(0.52 0.07 -0.07 0.52 298.67 511.64) translate(-1000, -1000)" id="__lottie_element_4" clip-path="url(#undefined)" d="M 0 0 L 2000 0 L 2000 2000 L 0 2000 z" stroke-linecap="round" />
</clipPath>
<path style="stroke: none; stroke-width: 1; stroke-dasharray: none; stroke-linecap: butt; stroke-dashoffset: 0; stroke-linejoin: miter; stroke-miterlimit: 4; fill: rgb(218,204,245); fill-rule: nonzero; opacity: 1;" vector-effect="non-scaling-stroke"  transform=" translate(0.95, 0)" d="M -10.833000183105469 -11.003999710083008 C -10.833000183105469 -11.003999710083008 5.836999893188477 17.33799934387207 5.836999893188477 17.33799934387207 C 5.836999893188477 17.33799934387207 10.833000183105469 0.6769999861717224 8.12600040435791 -7.757999897003174 C 5.419000148773193 -16.19300079345703 3.0739998817443848 -17.33799934387207 3.0739998817443848 -17.33799934387207 C -4.578999996185303 -16.400999069213867 -10.833000183105469 -11.003999710083008 -10.833000183105469 -11.003999710083008 z" stroke-linecap="round" />
</g>
		<g transform="matrix(1.9 -0.26 0.26 1.9 81.66 -66.3)" clip-path="url(#CLIPPATH_6)"  >
<clipPath id="CLIPPATH_6" >
	<path transform="matrix(0.52 0.07 -0.07 0.52 296.16 519.56) translate(-1000, -1000)" id="__lottie_element_4" clip-path="url(#undefined)" d="M 0 0 L 2000 0 L 2000 2000 L 0 2000 z" stroke-linecap="round" />
</clipPath>
<path style="stroke: none; stroke-width: 1; stroke-dasharray: none; stroke-linecap: butt; stroke-dashoffset: 0; stroke-linejoin: miter; stroke-miterlimit: 4; fill: rgb(161,140,239); fill-rule: nonzero; opacity: 1;" vector-effect="non-scaling-stroke"  transform=" translate(0, 0)" d="M 1.5080000162124634 -9.42300033569336 C 1.5080000162124634 -9.42300033569336 -4.685999870300293 -2.7850000858306885 -4.685999870300293 7.914000034332275 C -4.685999870300293 7.914000034332275 -2.2909998893737793 9.425000190734863 -2.2909998893737793 9.425000190734863 C -2.2909998893737793 9.425000190734863 4.685999870300293 -5.015999794006348 4.685999870300293 -5.015999794006348 C 4.685999870300293 -5.015999794006348 2.434000015258789 -9.425000190734863 1.5449999570846558 -9.425000190734863 C 1.531999945640564 -9.425000190734863 1.5199999809265137 -9.423999786376953 1.5080000162124634 -9.42300033569336 z" stroke-linecap="round" />
</g>
		<g transform="matrix(1.9 -0.26 0.26 1.9 93.09 -48.74)" clip-path="url(#CLIPPATH_7)"  >
<clipPath id="CLIPPATH_7" >
	<path transform="matrix(0.52 0.07 -0.07 0.52 291.47 509.68) translate(-1000, -1000)" id="__lottie_element_4" clip-path="url(#undefined)" d="M 0 0 L 2000 0 L 2000 2000 L 0 2000 z" stroke-linecap="round" />
</clipPath>
<path style="stroke: none; stroke-width: 1; stroke-dasharray: none; stroke-linecap: butt; stroke-dashoffset: 0; stroke-linejoin: miter; stroke-miterlimit: 4; fill: rgb(47,236,235); fill-rule: nonzero; opacity: 1;" vector-effect="non-scaling-stroke"  transform=" translate(0.36, 0)" d="M -7.567999839782715 -1.180999994277954 C -7.567999839782715 -1.180999994277954 1.8969999551773071 17.034000396728516 1.8969999551773071 17.034000396728516 C 1.8969999551773071 17.034000396728516 9.215999603271484 9.909000396728516 6.4039998054504395 -1.9630000591278076 C 3.5929999351501465 -13.833000183105469 -3.2019999027252197 -17.03499984741211 -3.2019999027252197 -17.03499984741211 C -9.21500015258789 -10.319000244140625 -7.567999839782715 -1.180999994277954 -7.567999839782715 -1.180999994277954 z" stroke-linecap="round" />
</g>
		<g transform="matrix(1.9 -0.26 0.26 1.9 -70.16 -26.72)" clip-path="url(#CLIPPATH_8)"  >
<clipPath id="CLIPPATH_8" >
	<path transform="matrix(0.52 0.07 -0.07 0.52 377.4 509.68) translate(-1000, -1000)" id="__lottie_element_4" clip-path="url(#undefined)" d="M 0 0 L 2000 0 L 2000 2000 L 0 2000 z" stroke-linecap="round" />
</clipPath>
<path style="stroke: none; stroke-width: 1; stroke-dasharray: none; stroke-linecap: butt; stroke-dashoffset: 0; stroke-linejoin: miter; stroke-miterlimit: 4; fill: rgb(47,236,235); fill-rule: nonzero; opacity: 1;" vector-effect="non-scaling-stroke"  transform=" translate(-0.36, 0)" d="M -6.40500020980835 -1.9630000591278076 C -9.21500015258789 9.909000396728516 -1.8980000019073486 17.034000396728516 -1.8980000019073486 17.034000396728516 C -1.8980000019073486 17.034000396728516 7.567999839782715 -1.180999994277954 7.567999839782715 -1.180999994277954 C 7.567999839782715 -1.180999994277954 9.21500015258789 -10.319000244140625 3.2019999027252197 -17.03499984741211 C 3.2019999027252197 -17.03499984741211 -3.5929999351501465 -13.833000183105469 -6.40500020980835 -1.9630000591278076 z" stroke-linecap="round" />
</g>
		<g transform="matrix(1.9 -0.26 0.26 1.9 16.86 0)" clip-path="url(#CLIPPATH_9)"  >
<clipPath id="CLIPPATH_9" >
	<path transform="matrix(0.52 0.07 -0.07 0.52 334.28 489.8) translate(-1000, -1000)" id="__lottie_element_4" clip-path="url(#undefined)" d="M 0 0 L 2000 0 L 2000 2000 L 0 2000 z" stroke-linecap="round" />
</clipPath>
<path style="stroke: none; stroke-width: 1; stroke-dasharray: none; stroke-linecap: butt; stroke-dashoffset: 0; stroke-linejoin: miter; stroke-miterlimit: 4; fill: rgb(217,205,246); fill-rule: nonzero; opacity: 1;" vector-effect="non-scaling-stroke"  transform=" translate(-0.3, 2.57)" d="M -43.43899917602539 -11.017000198364258 C -48.80500030517578 3.2860000133514404 -49.41699981689453 18.825000762939453 -43.84400177001953 29.163000106811523 C -35.30400085449219 44.9900016784668 30.291000366210938 46.441001892089844 44.24700164794922 26.8700008392334 C 48.9379997253418 20.29199981689453 49.41699981689453 9.86400032043457 46.630001068115234 -1.0920000076293945 C 41.124000549316406 -22.73900032043457 22.847999572753906 -46.439998626708984 -0.9430000185966492 -46.439998626708984 C -21.156999588012695 -46.439998626708984 -36.39899826049805 -29.78700065612793 -43.43899917602539 -11.017000198364258 z" stroke-linecap="round" />
</g>
		<g transform="matrix(1.9 -0.26 0.26 1.9 14.68 -16.1)" clip-path="url(#CLIPPATH_10)"  >
<clipPath id="CLIPPATH_10" >
	<path transform="matrix(0.52 0.07 -0.07 0.52 334.28 498.27) translate(-1000, -1000)" id="__lottie_element_4" clip-path="url(#undefined)" d="M 0 0 L 2000 0 L 2000 2000 L 0 2000 z" stroke-linecap="round" />
</clipPath>
<path style="stroke: none; stroke-width: 1; stroke-dasharray: none; stroke-linecap: butt; stroke-dashoffset: 0; stroke-linejoin: miter; stroke-miterlimit: 4; fill: rgb(222,227,250); fill-rule: nonzero; opacity: 1;" vector-effect="non-scaling-stroke"  transform=" translate(2.75, 1.01)" d="M -41.99300003051758 18.7549991607666 C -38.86899948120117 32.08399963378906 18.78700065612793 33.53499984741211 32.948001861572266 21.45599937438965 C 47.11000061035156 9.376999855041504 26.716999053955078 -33.53499984741211 -4.521999835968018 -31.660999298095703 C -33.09400177001953 -29.945999145507812 -47.11000061035156 -3.0769999027252197 -41.99300003051758 18.7549991607666 z" stroke-linecap="round" />
</g>
		<g transform="matrix(1.9 -0.26 0.26 1.9 13.7 -19.1)" clip-path="url(#CLIPPATH_11)"  >
<clipPath id="CLIPPATH_11" >
	<path transform="matrix(0.52 0.07 -0.07 0.52 334.58 499.89) translate(-1000, -1000)" id="__lottie_element_4" clip-path="url(#undefined)" d="M 0 0 L 2000 0 L 2000 2000 L 0 2000 z" stroke-linecap="round" />
</clipPath>
<path style="stroke: none; stroke-width: 1; stroke-dasharray: none; stroke-linecap: butt; stroke-dashoffset: 0; stroke-linejoin: miter; stroke-miterlimit: 4; fill: rgb(13,75,163); fill-rule: nonzero; opacity: 1;" vector-effect="non-scaling-stroke"  transform=" translate(2.6, 1.92)" d="M -4.370999813079834 -32.56800079345703 C -32.94200134277344 -30.854000091552734 -46.95800018310547 -3.9839999675750732 -41.840999603271484 17.847999572753906 C -38.71799850463867 31.176000595092773 18.937999725341797 32.62799835205078 33.099998474121094 20.548999786376953 C 46.95899963378906 8.72700023651123 27.719999313354492 -32.62300109863281 -2.388000011444092 -32.62799835205078 C -3.0460000038146973 -32.62799835205078 -3.7039999961853027 -32.608001708984375 -4.370999813079834 -32.56800079345703 z" stroke-linecap="round" />
</g>
		<g transform="matrix(1.9 -0.26 0.26 1.9 21.4 33.64)" clip-path="url(#CLIPPATH_12)"  >
<clipPath id="CLIPPATH_12" >
	<path transform="matrix(0.52 0.07 -0.07 0.52 334.28 472.09) translate(-1000, -1000)" id="__lottie_element_4" clip-path="url(#undefined)" d="M 0 0 L 2000 0 L 2000 2000 L 0 2000 z" stroke-linecap="round" />
</clipPath>
<path style="stroke: none; stroke-width: 1; stroke-dasharray: none; stroke-linecap: butt; stroke-dashoffset: 0; stroke-linejoin: miter; stroke-miterlimit: 4; fill: rgb(190,174,235); fill-rule: nonzero; opacity: 1;" vector-effect="non-scaling-stroke"  transform=" translate(0, 0)" d="M 43.95100021362305 11.737000465393066 C 29.9950008392334 31.30699920654297 -35.599998474121094 29.856000900268555 -44.13999938964844 14.029000282287598 C -49.7130012512207 3.690999984741211 -49.10300064086914 -11.847999572753906 -43.736000061035156 -26.150999069213867 C -43.736000061035156 -26.159000396728516 -43.72800064086914 -26.159000396728516 -43.72800064086914 -26.159000396728516 C -43.95899963378906 -25.31800079345703 -49.457000732421875 -5.269999980926514 -43.84299850463867 3.549999952316284 C -38.10599899291992 12.569999694824219 -15.402999877929688 11.315999984741211 8.965999603271484 10.277999877929688 C 33.33300018310547 9.230999946594238 41.395999908447266 5.693999767303467 45.48500061035156 -1.180999994277954 C 48.70800018310547 -6.589000225067139 45.46799850463867 -18.525999069213867 43.94300079345703 -23.356000900268555 C 43.94300079345703 -23.356000900268555 46.33399963378906 -16.22599983215332 46.33399963378906 -16.22599983215332 C 49.119998931884766 -5.269999980926514 48.641998291015625 5.1579999923706055 43.95100021362305 11.737000465393066 z" stroke-linecap="round" />
</g>
		<g transform="matrix(1.9 -0.26 0.26 1.9 24.13 70.71)" clip-path="url(#CLIPPATH_13)"  >
<clipPath id="CLIPPATH_13" >
	<path transform="matrix(0.52 0.07 -0.07 0.52 335.45 452.74) translate(-1000, -1000)" id="__lottie_element_4" clip-path="url(#undefined)" d="M 0 0 L 2000 0 L 2000 2000 L 0 2000 z" stroke-linecap="round" />
</clipPath>
<path style="stroke: none; stroke-width: 1; stroke-dasharray: none; stroke-linecap: butt; stroke-dashoffset: 0; stroke-linejoin: miter; stroke-miterlimit: 4; fill: rgb(142,125,235); fill-rule: nonzero; opacity: 1;" vector-effect="non-scaling-stroke"  transform=" translate(0.5, 0)" d="M -27.516000747680664 -4.705999851226807 C -31.729000091552734 -3.930999994277954 -34.40800094604492 -2.9839999675750732 -34.564998626708984 -1.9040000438690186 C -34.82099914550781 -0.13199999928474426 -33.073001861572266 1.590999960899353 -29.461999893188477 3.0350000858306885 C -29.461999893188477 3.0350000858306885 -29.45400047302246 3.0350000858306885 -29.45400047302246 3.0350000858306885 C -23.954999923706055 5.235000133514404 -14.128999710083008 6.769000053405762 -0.49399998784065247 6.784999847412109 C 11.821999549865723 6.793000221252441 34.82099914550781 2.5139999389648438 33.53499984741211 -1.9040000438690186 C 33.46900177001953 -2.135999917984009 33.3380012512207 -2.3570001125335693 33.14799880981445 -2.5789999961853027 C 32.39799880981445 -3.453000068664551 30.70800018310547 -4.170000076293945 28.326000213623047 -4.755000114440918 C 28.28499984741211 -4.763000011444092 28.250999450683594 -4.771999835968018 28.211000442504883 -4.781000137329102 C 28.01300048828125 -4.828999996185303 27.805999755859375 -4.88100004196167 27.591999053955078 -4.929999828338623 C 26.5939998626709 -5.1519999504089355 25.48900032043457 -5.348999977111816 24.30299949645996 -5.53000020980835 C 18.56599998474121 -6.400000095367432 10.789999961853027 -6.793000221252441 2.7699999809265137 -6.793000221252441 C -8.513999938964844 -6.793000221252441 -20.27899932861328 -6.015999794006348 -27.516000747680664 -4.705999851226807 z" stroke-linecap="round" />
</g>
		<g transform="matrix(1.9 -0.26 0.26 1.9 23.46 67.18)" clip-path="url(#CLIPPATH_14)"  >
<clipPath id="CLIPPATH_14" >
	<path transform="matrix(0.52 0.07 -0.07 0.52 335.55 454.61) translate(-1000, -1000)" id="__lottie_element_4" clip-path="url(#undefined)" d="M 0 0 L 2000 0 L 2000 2000 L 0 2000 z" stroke-linecap="round" />
</clipPath>
<path style="stroke: none; stroke-width: 1; stroke-dasharray: none; stroke-linecap: butt; stroke-dashoffset: 0; stroke-linejoin: miter; stroke-miterlimit: 4; fill: rgb(103,93,216); fill-rule: nonzero; opacity: 1;" vector-effect="non-scaling-stroke"  transform=" translate(0, 0)" d="M 33.979000091552734 -1.1119999885559082 C 33.92900085449219 -0.9800000190734863 33.85499954223633 -0.8399999737739563 33.74800109863281 -0.699999988079071 C 32.41299819946289 1.187999963760376 26.996000289916992 3.61899995803833 26.996000289916992 3.61899995803833 C 26.996000289916992 3.61899995803833 6.181000232696533 -4.895999908447266 -10.692999839782715 -1.1119999885559082 C -27.56800079345703 2.671999931335449 -28.854000091552734 4.914000034332275 -28.854000091552734 4.914000034332275 C -28.854000091552734 4.914000034332275 -28.86199951171875 4.914000034332275 -28.86199951171875 4.914000034332275 C -32.472999572753906 3.4709999561309814 -34.220001220703125 1.7480000257492065 -33.96500015258789 -0.024000000208616257 C -33.80799865722656 -1.1039999723434448 -31.128999710083008 -2.052000045776367 -26.91699981689453 -2.8269999027252197 C -14.53499984741211 -5.068999767303467 11.095999717712402 -5.744999885559082 24.90399932861328 -3.6519999504089355 C 26.347000122070312 -3.3959999084472656 27.656999588012695 -3.140000104904175 28.81100082397461 -2.9010000228881836 C 28.851999282836914 -2.8929998874664307 28.885000228881836 -2.884999990463257 28.926000595092773 -2.877000093460083 C 32.19900131225586 -2.1679999828338623 34.13600158691406 -1.5410000085830688 33.979000091552734 -1.1119999885559082 z" stroke-linecap="round" />
</g>
		<g transform="matrix(1.9 -0.26 0.26 1.9 24.38 64.9)" clip-path="url(#CLIPPATH_15)"  >
<clipPath id="CLIPPATH_15" >
	<path transform="matrix(0.52 0.07 -0.07 0.52 334.91 455.72) translate(-1000, -1000)" id="__lottie_element_4" clip-path="url(#undefined)" d="M 0 0 L 2000 0 L 2000 2000 L 0 2000 z" stroke-linecap="round" />
</clipPath>
<path style="stroke: none; stroke-width: 1; stroke-dasharray: none; stroke-linecap: butt; stroke-dashoffset: 0; stroke-linejoin: miter; stroke-miterlimit: 4; fill: rgb(102,65,171); fill-rule: nonzero; opacity: 1;" vector-effect="non-scaling-stroke"  transform=" translate(0, 0)" d="M -27.554000854492188 -1.718000054359436 C -25.32900047302246 1.2829999923706055 -15.734000205993652 3.7720000743865967 0.061000000685453415 3.796999931335449 C 8.87399959564209 3.805000066757202 24.33099937438965 1.1419999599456787 27.554000854492188 -1.940999984741211 C 21.75 -3.2339999675750732 12.432000160217285 -3.805000066757202 2.756999969482422 -3.805000066757202 C -8.53499984741211 -3.805000066757202 -20.312999725341797 -3.0280001163482666 -27.554000854492188 -1.718000054359436 z" stroke-linecap="round" />
</g>
		<g transform="matrix(1.9 -0.26 0.26 1.9 -45.31 56.44)" clip-path="url(#CLIPPATH_16)"  >
<clipPath id="CLIPPATH_16" >
	<path transform="matrix(0.52 0.07 -0.07 0.52 370.35 464.96) translate(-1000, -1000)" id="__lottie_element_4" clip-path="url(#undefined)" d="M 0 0 L 2000 0 L 2000 2000 L 0 2000 z" stroke-linecap="round" />
</clipPath>
<path style="stroke: none; stroke-width: 1; stroke-dasharray: none; stroke-linecap: butt; stroke-dashoffset: 0; stroke-linejoin: miter; stroke-miterlimit: 4; fill: rgb(140,130,214); fill-rule: nonzero; opacity: 1;" vector-effect="non-scaling-stroke"  transform=" translate(397.27, 70.19)" d="M -405.3389892578125 -63.29199981689453 C -405.3389892578125 -63.29199981689453 -402.5690002441406 -66.52400207519531 -397.135009765625 -69.12799835205078 C -391.70001220703125 -71.73100280761719 -386.7040100097656 -73.7699966430664 -385.9330139160156 -75.86100006103516 C -385.1610107421875 -77.9530029296875 -400.8389892578125 -76.71900177001953 -400.8389892578125 -76.71900177001953 C -400.8389892578125 -76.71900177001953 -408.6440124511719 -73.33200073242188 -408.6440124511719 -73.33200073242188 C -408.6440124511719 -73.33200073242188 -407.4200134277344 -67.03800201416016 -405.3389892578125 -63.29199981689453 z" stroke-linecap="round" />
</g>
		<g transform="matrix(1.9 -0.26 0.26 1.9 47.53 -38.19)" clip-path="url(#CLIPPATH_17)"  >
<clipPath id="CLIPPATH_17" >
	<path transform="matrix(0.52 0.07 -0.07 0.52 315.76 507.41) translate(-1000, -1000)" id="__lottie_element_4" clip-path="url(#undefined)" d="M 0 0 L 2000 0 L 2000 2000 L 0 2000 z" stroke-linecap="round" />
</clipPath>
<path style="stroke: none; stroke-width: 1; stroke-dasharray: none; stroke-linecap: butt; stroke-dashoffset: 0; stroke-linejoin: miter; stroke-miterlimit: 4; fill: rgb(49,232,244); fill-rule: nonzero; opacity: 1;" vector-effect="non-scaling-stroke"  transform=" translate(0.12, 1.01)" d="M -1.7640000581741333 -8.315999984741211 C -9.052000045776367 -7.48199987411499 -9.333000183105469 2.921999931335449 -8.322999954223633 4.701000213623047 C -6.239999771118164 8.369999885559082 7.559999942779541 5.109000205993652 8.338000297546387 2.930999994277954 C 9.333999633789062 0.1420000046491623 5.8470001220703125 -8.369000434875488 -0.8389999866485596 -8.369999885559082 C -1.1410000324249268 -8.369999885559082 -1.4490000009536743 -8.35200023651123 -1.7640000581741333 -8.315999984741211 z" stroke-linecap="round" />
</g>
		<g transform="matrix(1.9 -0.26 0.26 1.9 -24.6 -28.47)" clip-path="url(#CLIPPATH_18)"  >
<clipPath id="CLIPPATH_18" >
	<path transform="matrix(0.52 0.07 -0.07 0.52 353.72 507.41) translate(-1000, -1000)" id="__lottie_element_4" clip-path="url(#undefined)" d="M 0 0 L 2000 0 L 2000 2000 L 0 2000 z" stroke-linecap="round" />
</clipPath>
<path style="stroke: none; stroke-width: 1; stroke-dasharray: none; stroke-linecap: butt; stroke-dashoffset: 0; stroke-linejoin: miter; stroke-miterlimit: 4; fill: rgb(49,232,244); fill-rule: nonzero; opacity: 1;" vector-effect="non-scaling-stroke"  transform=" translate(-0.12, 1.01)" d="M -8.336999893188477 2.930999994277954 C -7.559000015258789 5.109000205993652 6.242000102996826 8.369999885559082 8.324999809265137 4.701000213623047 C 9.333999633789062 2.921999931335449 9.053999900817871 -7.48199987411499 1.7660000324249268 -8.315999984741211 C 1.4509999752044678 -8.35200023651123 1.1440000534057617 -8.369999885559082 0.8420000076293945 -8.369999885559082 C -5.8460001945495605 -8.369000434875488 -9.333999633789062 0.1420000046491623 -8.336999893188477 2.930999994277954 z" stroke-linecap="round" />
</g>
		<g transform="matrix(1.9 -0.26 0.26 1.9 17.93 -4.83)" clip-path="url(#CLIPPATH_19)"  >
<clipPath id="CLIPPATH_19" >
	<path transform="matrix(0.52 0.07 -0.07 0.52 333.38 492.22) translate(-1000, -1000)" id="__lottie_element_4" clip-path="url(#undefined)" d="M 0 0 L 2000 0 L 2000 2000 L 0 2000 z" stroke-linecap="round" />
</clipPath>
<path style="stroke: none; stroke-width: 1; stroke-dasharray: none; stroke-linecap: butt; stroke-dashoffset: 0; stroke-linejoin: miter; stroke-miterlimit: 4; fill: rgb(46,148,204); fill-rule: nonzero; opacity: 1;" vector-effect="non-scaling-stroke"  transform=" translate(0, 0)" d="M -15.984000205993652 -2.7079999446868896 C -15.984000205993652 -2.7079999446868896 -12.048999786376953 1.3550000190734863 -0.8960000276565552 1.3550000190734863 C 10.256999969482422 1.3550000190734863 15.982999801635742 -3.3329999446868896 15.982999801635742 -3.3329999446868896 C 15.982999801635742 -3.3329999446868896 11.067000389099121 3.3329999446868896 -0.8960000276565552 3.3329999446868896 C -12.859999656677246 3.3329999446868896 -15.984000205993652 -2.7079999446868896 -15.984000205993652 -2.7079999446868896 z" stroke-linecap="round" />
</g>
		<g transform="matrix(1.9 -0.26 0.26 1.9 -85.46 18.22)" clip-path="url(#CLIPPATH_20)"  >
<clipPath id="CLIPPATH_20" >
	<path transform="matrix(0.52 0.07 -0.07 0.52 388.44 487.51) translate(-1000, -1000)" id="__lottie_element_4" clip-path="url(#undefined)" d="M 0 0 L 2000 0 L 2000 2000 L 0 2000 z" stroke-linecap="round" />
</clipPath>
<path style="stroke: none; stroke-width: 1; stroke-dasharray: none; stroke-linecap: butt; stroke-dashoffset: 0; stroke-linejoin: miter; stroke-miterlimit: 4; fill: rgb(185,153,235); fill-rule: nonzero; opacity: 1;" vector-effect="non-scaling-stroke"  transform=" translate(-1.04, 1.32)" d="M -9.762999534606934 -1.3240000009536743 C -16.218000411987305 9.819000244140625 -13.616000175476074 15.99899959564209 -13.616000175476074 15.99899959564209 C -5.961999893188477 21.21500015258789 16.218000411987305 16.875999450683594 16.218000411987305 16.875999450683594 C 16.218000411987305 16.875999450683594 15.281000137329102 13.751999855041504 15.281000137329102 13.751999855041504 C 15.281000137329102 13.751999855041504 -10.829000473022461 18.281999588012695 -11.741000175476074 8.923999786376953 C -12.833999633789062 -2.2909998893737793 6.061999797821045 -12.583000183105469 6.061999797821045 -12.583000183105469 C 8.71399974822998 -18.61199951171875 4.670000076293945 -21.21500015258789 4.670000076293945 -21.21500015258789 C 4.670000076293945 -21.21500015258789 -3.306999921798706 -12.46500015258789 -9.762999534606934 -1.3240000009536743 z" stroke-linecap="round" />
</g>
		<g transform="matrix(1.9 -0.26 0.26 1.9 -43.05 41.97)" clip-path="url(#CLIPPATH_21)"  >
<clipPath id="CLIPPATH_21" >
	<path transform="matrix(0.52 0.07 -0.07 0.52 368.17 472.28) translate(-1000, -1000)" id="__lottie_element_4" clip-path="url(#undefined)" d="M 0 0 L 2000 0 L 2000 2000 L 0 2000 z" stroke-linecap="round" />
</clipPath>
<path style="stroke: none; stroke-width: 1; stroke-dasharray: none; stroke-linecap: butt; stroke-dashoffset: 0; stroke-linejoin: miter; stroke-miterlimit: 4; fill: rgb(236,22,134); fill-rule: nonzero; opacity: 1;" vector-effect="non-scaling-stroke"  transform=" translate(-0.65, 0.21)" d="M -8.685999870300293 -1.2369999885559082 C -11.0649995803833 1.4539999961853027 -6.015999794006348 4.39900016784668 -1.8650000095367432 4.85099983215332 C 2.7929999828338623 5.357999801635742 11.0649995803833 3.515000104904175 10.565999984741211 -1.1759999990463257 C 10.295999526977539 -3.7039999961853027 6.3460001945495605 -5.35699987411499 1.8880000114440918 -5.35699987411499 C -1.9270000457763672 -5.357999801635742 -6.113999843597412 -4.146999835968018 -8.685999870300293 -1.2369999885559082 z" stroke-linecap="round" />
</g>
		<g transform="matrix(1.9 -0.26 0.26 1.9 22.76 28.22)" clip-path="url(#CLIPPATH_22)"  >
<clipPath id="CLIPPATH_22" >
	<path transform="matrix(0.52 0.07 -0.07 0.52 333.19 474.8) translate(-1000, -1000)" id="__lottie_element_4" clip-path="url(#undefined)" d="M 0 0 L 2000 0 L 2000 2000 L 0 2000 z" stroke-linecap="round" />
</clipPath>
<path style="stroke: none; stroke-width: 1; stroke-dasharray: none; stroke-linecap: butt; stroke-dashoffset: 0; stroke-linejoin: miter; stroke-miterlimit: 4; fill: rgb(65,115,198); fill-rule: nonzero; opacity: 1;" vector-effect="non-scaling-stroke"  transform=" translate(360.11, 80.03)" d="M -382.3689880371094 -81.45500183105469 C -383.1990051269531 -78.32599639892578 -376.65301513671875 -75.19599914550781 -360.55499267578125 -75.98400115966797 C -341.0929870605469 -76.93699645996094 -336.9599914550781 -81.01499938964844 -337.9169921875 -82.14399719238281 C -338.4909973144531 -82.8219985961914 -344.3210144042969 -79.1500015258789 -360.30499267578125 -82.65399932861328 C -370.8609924316406 -84.96800231933594 -381.4949951171875 -84.74700164794922 -382.3689880371094 -81.45500183105469 z" stroke-linecap="round" />
</g>
		<g transform="matrix(1.9 -0.26 0.26 1.9 97.91 -24.03)" clip-path="url(#CLIPPATH_23)"  >
<clipPath id="CLIPPATH_23" >
	<path transform="matrix(0.52 0.07 -0.07 0.52 290.7 496.57) translate(-1000, -1000)" id="__lottie_element_4" clip-path="url(#undefined)" d="M 0 0 L 2000 0 L 2000 2000 L 0 2000 z" stroke-linecap="round" />
</clipPath>
<path style="stroke: none; stroke-width: 1; stroke-dasharray: none; stroke-linecap: butt; stroke-dashoffset: 0; stroke-linejoin: miter; stroke-miterlimit: 4; fill: rgb(128,128,128); fill-rule: nonzero; opacity: 1;" vector-effect="non-scaling-stroke"  transform=" translate(0, 0)" d="M 0.23499999940395355 0.7080000042915344 C 0.23499999940395355 0.7080000042915344 -0.23499999940395355 -0.7089999914169312 -0.23499999940395355 -0.7089999914169312 C -0.14399999380111694 -0.43700000643730164 0.028999999165534973 0.04899999871850014 0.23499999940395355 0.7080000042915344 z M -0.23499999940395355 0.7080000042915344 C -0.23499999940395355 0.7080000042915344 0.23499999940395355 0.7080000042915344 0.23499999940395355 0.7080000042915344 C 0.23499999940395355 0.7080000042915344 0.23499999940395355 -0.7099999785423279 0.23499999940395355 -0.7099999785423279 C 0.23499999940395355 -0.7099999785423279 -0.23499999940395355 -0.7099999785423279 -0.23499999940395355 -0.7099999785423279 C -0.23499999940395355 -0.7099999785423279 -0.23499999940395355 0.7080000042915344 -0.23499999940395355 0.7080000042915344 z M -0.23499999940395355 0.7089999914169312 C -0.23499999940395355 0.7089999914169312 -0.23499999940395355 -0.7080000042915344 -0.23499999940395355 -0.7080000042915344 C -0.23499999940395355 -0.7080000042915344 0.23499999940395355 -0.7080000042915344 0.23499999940395355 -0.7080000042915344 C 0.23499999940395355 -0.7080000042915344 0.23499999940395355 0.7089999914169312 0.23499999940395355 0.7089999914169312 C 0.23499999940395355 0.7089999914169312 -0.23499999940395355 0.7089999914169312 -0.23499999940395355 0.7089999914169312 z" stroke-linecap="round" />
</g>
		<g transform="matrix(1.9 -0.26 0.26 1.9 35.91 -76.58)" clip-path="url(#CLIPPATH_24)"  >
<clipPath id="CLIPPATH_24" >
	<path transform="matrix(0.52 0.07 -0.07 0.52 319.09 528.06) translate(-1000, -1000)" id="__lottie_element_4" clip-path="url(#undefined)" d="M 0 0 L 2000 0 L 2000 2000 L 0 2000 z" stroke-linecap="round" />
</clipPath>
<path style="stroke: none; stroke-width: 1; stroke-dasharray: none; stroke-linecap: butt; stroke-dashoffset: 0; stroke-linejoin: miter; stroke-miterlimit: 4; fill: rgb(255,255,255); fill-rule: nonzero; opacity: 1;" vector-effect="non-scaling-stroke"  transform=" translate(-0.41, -0.06)" d="M -4.883999824523926 -2.7829999923706055 C -6.267000198364258 -2.4609999656677246 5.329999923706055 3.6730000972747803 5.798999786376953 2.944000005722046 C 6.26800012588501 2.2149999141693115 -1.059000015258789 -3.6730000972747803 -4.883999824523926 -2.7829999923706055 z" stroke-linecap="round" />
</g>
		<g transform="matrix(1.9 -0.26 0.26 1.9 72.44 -77.65)" clip-path="url(#CLIPPATH_25)"  >
<clipPath id="CLIPPATH_25" >
	<path transform="matrix(0.52 0.07 -0.07 0.52 300.13 526.07) translate(-1000, -1000)" id="__lottie_element_4" clip-path="url(#undefined)" d="M 0 0 L 2000 0 L 2000 2000 L 0 2000 z" stroke-linecap="round" />
</clipPath>
<path style="stroke: none; stroke-width: 1; stroke-dasharray: none; stroke-linecap: butt; stroke-dashoffset: 0; stroke-linejoin: miter; stroke-miterlimit: 4; fill: rgb(255,255,255); fill-rule: nonzero; opacity: 1;" vector-effect="non-scaling-stroke"  transform=" translate(-0.1, 0)" d="M -1.934000015258789 -0.25699999928474426 C -3.0899999141693115 0.367000013589859 -2.996999979019165 1.6139999628067017 -0.6039999723434448 1.3009999990463257 C 1.7879999876022339 0.9890000224113464 3.0899999141693115 -0.8849999904632568 2.8299999237060547 -1.25 C 2.569000005722046 -1.6139999628067017 -0.6370000243186951 -0.9570000171661377 -1.934000015258789 -0.25699999928474426 z" stroke-linecap="round" />
</g>
		<g transform="matrix(1.9 -0.26 0.26 1.9 -44.77 37.45)" clip-path="url(#CLIPPATH_26)"  >
<clipPath id="CLIPPATH_26" >
	<path transform="matrix(0.52 0.07 -0.07 0.52 368.75 474.73) translate(-1000, -1000)" id="__lottie_element_4" clip-path="url(#undefined)" d="M 0 0 L 2000 0 L 2000 2000 L 0 2000 z" stroke-linecap="round" />
</clipPath>
<path style="stroke: none; stroke-width: 1; stroke-dasharray: none; stroke-linecap: butt; stroke-dashoffset: 0; stroke-linejoin: miter; stroke-miterlimit: 4; fill: rgb(236,84,205); fill-rule: nonzero; opacity: 1;" vector-effect="non-scaling-stroke"  transform=" translate(0.02, 0.23)" d="M -8.460000038146973 1.6890000104904175 C -8.60099983215332 2.4570000171661377 8.026000022888184 2.6410000324249268 8.416999816894531 -0.2980000078678131 C 8.60099983215332 -1.684999942779541 5.09499979019165 -2.6410000324249268 1.2269999980926514 -2.6410000324249268 C -3.0999999046325684 -2.6410000324249268 -7.882999897003174 -1.444000005722046 -8.460000038146973 1.6890000104904175 z" stroke-linecap="round" />
</g>
		<g transform="matrix(1.9 -0.26 0.26 1.9 -52.1 2.59)" clip-path="url(#CLIPPATH_27)"  >
<clipPath id="CLIPPATH_27" >
	<path transform="matrix(0.52 0.07 -0.07 0.52 370.11 493.27) translate(-1000, -1000)" id="__lottie_element_4" clip-path="url(#undefined)" d="M 0 0 L 2000 0 L 2000 2000 L 0 2000 z" stroke-linecap="round" />
</clipPath>
<path style="stroke: none; stroke-width: 1; stroke-dasharray: none; stroke-linecap: butt; stroke-dashoffset: 0; stroke-linejoin: miter; stroke-miterlimit: 4; fill: rgb(40,96,180); fill-rule: nonzero; opacity: 1;" vector-effect="non-scaling-stroke"  transform=" translate(0, 0)" d="M -2.99399995803833 8.75 C -2.99399995803833 8.75 -3.6700000762939453 4.214000225067139 -2.872999906539917 -1.8769999742507935 C -2.075000047683716 -7.9670000076293945 -0.4390000104904175 -11.901000022888184 0.5350000262260437 -11.348999977111816 C 1.5099999904632568 -10.795999526977539 1.3589999675750732 -4.831999778747559 1.934000015258789 1.0460000038146973 C 2.381999969482422 5.61899995803833 3.260999917984009 9.911999702453613 3.260999917984009 9.911999702453613 C 3.260999917984009 9.911999702453613 -0.9459999799728394 13.935999870300293 -2.99399995803833 8.75 z" stroke-linecap="round" />
</g>
		<g transform="matrix(1.9 -0.26 0.26 1.9 89.04 -64.66)" clip-path="url(#CLIPPATH_28)"  >
<clipPath id="CLIPPATH_28" >
	<path transform="matrix(0.52 0.07 -0.07 0.52 292.45 518.19) translate(-1000, -1000)" id="__lottie_element_4" clip-path="url(#undefined)" d="M 0 0 L 2000 0 L 2000 2000 L 0 2000 z" stroke-linecap="round" />
</clipPath>
<path style="stroke: none; stroke-width: 1; stroke-dasharray: none; stroke-linecap: butt; stroke-dashoffset: 0; stroke-linejoin: miter; stroke-miterlimit: 4; fill: rgb(124,240,250); fill-rule: nonzero; opacity: 1;" vector-effect="non-scaling-stroke"  transform=" translate(319.37, 123.42)" d="M -316.0469970703125 -126.56999969482422 C -316.0469970703125 -126.56999969482422 -318.25 -129.3000030517578 -321.25299072265625 -128.57400512695312 C -324.2560119628906 -127.8479995727539 -324.45599365234375 -118.38800048828125 -322.65899658203125 -118.15299987792969 C -320.8630065917969 -117.91899871826172 -320.10101318359375 -123.38600158691406 -318.7250061035156 -124.24500274658203 C -317.3489990234375 -125.10399627685547 -314.9419860839844 -124.77100372314453 -314.9419860839844 -124.77100372314453 C -314.9419860839844 -124.77100372314453 -316.0469970703125 -126.56999969482422 -316.0469970703125 -126.56999969482422 z" stroke-linecap="round" />
</g>
		<g transform="matrix(1.9 -0.26 0.26 1.9 -72 -45.59)" clip-path="url(#CLIPPATH_29)"  >
<clipPath id="CLIPPATH_29" >
	<path transform="matrix(0.52 0.07 -0.07 0.52 377.03 519.56) translate(-1000, -1000)" id="__lottie_element_4" clip-path="url(#undefined)" d="M 0 0 L 2000 0 L 2000 2000 L 0 2000 z" stroke-linecap="round" />
</clipPath>
<path style="stroke: none; stroke-width: 1; stroke-dasharray: none; stroke-linecap: butt; stroke-dashoffset: 0; stroke-linejoin: miter; stroke-miterlimit: 4; fill: rgb(124,240,250); fill-rule: nonzero; opacity: 1;" vector-effect="non-scaling-stroke"  transform=" translate(0, 0)" d="M -4.885000228881836 1.5049999952316284 C -4.885000228881836 1.5049999952316284 -3.7260000705718994 0.19099999964237213 -1.1230000257492065 0.6169999837875366 C 1.4800000190734863 1.0429999828338623 2.9809999465942383 6.385000228881836 4.314000129699707 5.848999977111816 C 5.645999908447266 5.311999797821045 4.668000221252441 -3.3429999351501465 1.1480000019073486 -5.888000011444092 C 1.1480000019073486 -5.888000011444092 -3.390000104904175 -2.0139999389648438 -4.885000228881836 1.5049999952316284 z" stroke-linecap="round" />
</g>
		<g transform="matrix(1.9 -0.26 0.26 1.9 -91.17 -4.96)" clip-path="url(#CLIPPATH_30)"  >
<clipPath id="CLIPPATH_30" >
	<path transform="matrix(0.52 0.07 -0.07 0.52 389.78 499.89) translate(-1000, -1000)" id="__lottie_element_4" clip-path="url(#undefined)" d="M 0 0 L 2000 0 L 2000 2000 L 0 2000 z" stroke-linecap="round" />
</clipPath>
<path style="stroke: none; stroke-width: 1; stroke-dasharray: none; stroke-linecap: butt; stroke-dashoffset: 0; stroke-linejoin: miter; stroke-miterlimit: 4; fill: rgb(217,207,246); fill-rule: nonzero; opacity: 1;" vector-effect="non-scaling-stroke"  transform=" translate(0, 0.35)" d="M -4.318999767303467 5.172999858856201 C -3.759000062942505 5.909999847412109 4.880000114440918 -4.841000080108643 4.328000068664551 -5.909999847412109 C 4.328000068664551 -5.909999847412109 -4.880000114440918 4.434000015258789 -4.318999767303467 5.172999858856201 z" stroke-linecap="round" />
</g>
</g>
</g>
</svg>